<svg width="1200" height="800" viewBox="0 0 1200 800" xmlns="http://www.w3.org/2000/svg"><rect width="100%" height="100%" fill="#050505" /><text x="600" y="50" font-family="serif" font-size="32" fill="white" text-anchor="middle">SEATING CHART</text><rect x="50" y="100" width="300" height="350" rx="15" fill="#d65b751A" stroke="#d65b75" stroke-width="2" /><text x="200" y="140" font-family="serif" font-size="24" fill="#d65b75" text-anchor="middle">Table A</text><line x1="70" y1="155" x2="330" y2="155" stroke="#d65b75" stroke-width="1" opacity="0.5" /><text x="70" y="185" font-family="sans-serif" font-size="14" fill="white">野口　智之</text><text x="70" y="203" font-family="sans-serif" font-size="10" fill="#999">従兄</text><text x="210" y="185" font-family="sans-serif" font-size="14" fill="white">野口　貴史</text><text x="210" y="203" font-family="sans-serif" font-size="10" fill="#999">従兄</text><text x="70" y="245" font-family="sans-serif" font-size="14" fill="white">野口　真由美</text><text x="70" y="263" font-family="sans-serif" font-size="10" fill="#999">従姉</text><text x="210" y="245" font-family="sans-serif" font-size="14" fill="white">野口　ひとみ</text><text x="210" y="263" font-family="sans-serif" font-size="10" fill="#999">従姉</text><text x="70" y="305" font-family="sans-serif" font-size="14" fill="white">野口　愛叶</text><text x="70" y="323" font-family="sans-serif" font-size="10" fill="#999">従姪</text><text x="210" y="305" font-family="sans-serif" font-size="14" fill="white">野口　みこと</text><text x="210" y="323" font-family="sans-serif" font-size="10" fill="#999">従姪</text><text x="70" y="365" font-family="sans-serif" font-size="14" fill="white">野口　定晴</text><text x="70" y="383" font-family="sans-serif" font-size="10" fill="#999">叔父</text><text x="210" y="365" font-family="sans-serif" font-size="14" fill="white">野口　あけみ</text><text x="210" y="383" font-family="sans-serif" font-size="10" fill="#999">叔母</text><rect x="400" y="100" width="300" height="350" rx="15" fill="#f2a8421A" stroke="#f2a842" stroke-width="2" /><text x="550" y="140" font-family="serif" font-size="24" fill="#f2a842" text-anchor="middle">Table B</text><line x1="420" y1="155" x2="680" y2="155" stroke="#f2a842" stroke-width="1" opacity="0.5" /><text x="420" y="185" font-family="sans-serif" font-size="14" fill="white">寳本　雄司</text><text x="420" y="203" font-family="sans-serif" font-size="10" fill="#999">従兄</text><text x="560" y="185" font-family="sans-serif" font-size="14" fill="white">吉村　光平</text><text x="560" y="203" font-family="sans-serif" font-size="10" fill="#999">従兄</text><text x="420" y="245" font-family="sans-serif" font-size="14" fill="white">寳本　愛</text><text x="420" y="263" font-family="sans-serif" font-size="10" fill="#999">従姉</text><text x="560" y="245" font-family="sans-serif" font-size="14" fill="white">吉村　桃子</text><text x="560" y="263" font-family="sans-serif" font-size="10" fill="#999">従妹</text><text x="420" y="305" font-family="sans-serif" font-size="14" fill="white">三尾　圭祐</text><text x="420" y="323" font-family="sans-serif" font-size="10" fill="#999">従弟</text><text x="560" y="305" font-family="sans-serif" font-size="14" fill="white">吉村　ベイビー？</text><text x="560" y="323" font-family="sans-serif" font-size="10" fill="#999">従</text><text x="420" y="365" font-family="sans-serif" font-size="14" fill="white">三尾　華子</text><text x="420" y="383" font-family="sans-serif" font-size="10" fill="#999">従妹</text><rect x="750" y="100" width="300" height="350" rx="15" fill="#6987cf1A" stroke="#6987cf" stroke-width="2" /><text x="900" y="140" font-family="serif" font-size="24" fill="#6987cf" text-anchor="middle">Table C</text><line x1="770" y1="155" x2="1030" y2="155" stroke="#6987cf" stroke-width="1" opacity="0.5" /><text x="770" y="185" font-family="sans-serif" font-size="14" fill="white">本庄　茂樹</text><text x="770" y="203" font-family="sans-serif" font-size="10" fill="#999">義弟</text><text x="910" y="185" font-family="sans-serif" font-size="14" fill="white">梅山淳一</text><text x="910" y="203" font-family="sans-serif" font-size="10" fill="#999">従兄</text><text x="770" y="245" font-family="sans-serif" font-size="14" fill="white">本庄　美里</text><text x="770" y="263" font-family="sans-serif" font-size="10" fill="#999">妹</text><text x="910" y="245" font-family="sans-serif" font-size="14" fill="white">梅山幸裕</text><text x="910" y="263" font-family="sans-serif" font-size="10" fill="#999">従兄</text><text x="770" y="305" font-family="sans-serif" font-size="14" fill="white">長谷川　菜々</text><text x="770" y="323" font-family="sans-serif" font-size="10" fill="#999">妹</text><rect x="50" y="500" width="300" height="350" rx="15" fill="#cea1d11A" stroke="#cea1d1" stroke-width="2" /><text x="200" y="540" font-family="serif" font-size="24" fill="#cea1d1" text-anchor="middle">Table D</text><line x1="70" y1="555" x2="330" y2="555" stroke="#cea1d1" stroke-width="1" opacity="0.5" /><text x="70" y="585" font-family="sans-serif" font-size="14" fill="white">宝本　亮太</text><text x="70" y="603" font-family="sans-serif" font-size="10" fill="#999">弟</text><text x="210" y="585" font-family="sans-serif" font-size="14" fill="white">寳本　安春</text><text x="210" y="603" font-family="sans-serif" font-size="10" fill="#999">祖父</text><text x="70" y="645" font-family="sans-serif" font-size="14" fill="white">宝本　真由美</text><text x="70" y="663" font-family="sans-serif" font-size="10" fill="#999">義妹</text><text x="210" y="645" font-family="sans-serif" font-size="14" fill="white">寳本　晃</text><text x="210" y="663" font-family="sans-serif" font-size="10" fill="#999">叔父</text><text x="70" y="705" font-family="sans-serif" font-size="14" fill="white">宝本　勇二</text><text x="70" y="723" font-family="sans-serif" font-size="10" fill="#999">父</text><text x="210" y="705" font-family="sans-serif" font-size="14" fill="white">寳本　恭子</text><text x="210" y="723" font-family="sans-serif" font-size="10" fill="#999">叔母</text><text x="70" y="765" font-family="sans-serif" font-size="14" fill="white">宝本　史</text><text x="70" y="783" font-family="sans-serif" font-size="10" fill="#999">母</text><rect x="400" y="500" width="300" height="350" rx="15" fill="#87bda21A" stroke="#87bda2" stroke-width="2" /><text x="550" y="540" font-family="serif" font-size="24" fill="#87bda2" text-anchor="middle">Table E</text><line x1="420" y1="555" x2="680" y2="555" stroke="#87bda2" stroke-width="1" opacity="0.5" /><text x="420" y="585" font-family="sans-serif" font-size="14" fill="white">米倉　勝司</text><text x="420" y="603" font-family="sans-serif" font-size="10" fill="#999">叔父</text><text x="560" y="585" font-family="sans-serif" font-size="14" fill="white">米倉　智樹</text><text x="560" y="603" font-family="sans-serif" font-size="10" fill="#999">従兄</text><text x="420" y="645" font-family="sans-serif" font-size="14" fill="white">米倉　かおり</text><text x="420" y="663" font-family="sans-serif" font-size="10" fill="#999">叔母</text><text x="560" y="645" font-family="sans-serif" font-size="14" fill="white">米倉　美羽</text><text x="560" y="663" font-family="sans-serif" font-size="10" fill="#999">従妹</text><text x="420" y="705" font-family="sans-serif" font-size="14" fill="white">米倉　穂波</text><text x="420" y="723" font-family="sans-serif" font-size="10" fill="#999">従妹</text><text x="560" y="705" font-family="sans-serif" font-size="14" fill="white">米倉　彗晏</text><text x="560" y="723" font-family="sans-serif" font-size="10" fill="#999">従姪</text><text x="420" y="765" font-family="sans-serif" font-size="14" fill="white">桧枝　学</text><text x="420" y="783" font-family="sans-serif" font-size="10" fill="#999">叔父</text><rect x="750" y="500" width="300" height="350" rx="15" fill="#0097b21A" stroke="#0097b2" stroke-width="2" /><text x="900" y="540" font-family="serif" font-size="24" fill="#0097b2" text-anchor="middle">Table F</text><line x1="770" y1="555" x2="1030" y2="555" stroke="#0097b2" stroke-width="1" opacity="0.5" /><text x="770" y="585" font-family="sans-serif" font-size="14" fill="white">長谷川　スミ</text><text x="770" y="603" font-family="sans-serif" font-size="10" fill="#999">祖母</text><text x="910" y="585" font-family="sans-serif" font-size="14" fill="white">梅山　満</text><text x="910" y="603" font-family="sans-serif" font-size="10" fill="#999">祖父</text><text x="770" y="645" font-family="sans-serif" font-size="14" fill="white">長谷川　夏美</text><text x="770" y="663" font-family="sans-serif" font-size="10" fill="#999">叔母</text><text x="910" y="645" font-family="sans-serif" font-size="14" fill="white">長谷川　妙子</text><text x="910" y="663" font-family="sans-serif" font-size="10" fill="#999">母</text><text x="770" y="705" font-family="sans-serif" font-size="14" fill="white">長谷川　実</text><text x="770" y="723" font-family="sans-serif" font-size="10" fill="#999">父</text></svg>